<?xml version="1.0" encoding="utf-8"?>
<!-- Generator: Adobe Illustrator 22.1.0, SVG Export Plug-In . SVG Version: 6.00 Build 0)  -->
<svg version="1.1" id="Layer_1" xmlns="http://www.w3.org/2000/svg" xmlns:xlink="http://www.w3.org/1999/xlink" x="0px" y="0px"
	 viewBox="0 0 280.2 196.1" style="enable-background:new 0 0 280.2 196.1;" xml:space="preserve">
<style type="text/css">
	.st0{fill:#1E1E1E;}
	.st1{enable-background:new    ;}
	.st2{fill:#E6007A;}
</style>
<title>dg-stack</title>
<path class="st0" d="M131.4,58.3H47.5c-9.7,0-17.6-7.9-17.6-17.6s7.9-17.6,17.6-17.6h83.9c9.7,0,17.6,7.9,17.6,17.6
	c0,4.6-1.7,9-5,12.4C140.6,56.4,136.2,58.3,131.4,58.3z M47.5,24.1c-9.2,0-16.6,7.4-16.6,16.6c0,9.2,7.4,16.6,16.6,16.6h83.9
	c4.5,0,8.7-1.8,11.9-4.9c3.1-3.1,4.8-7.3,4.7-11.7c0-9.2-7.4-16.6-16.6-16.6H47.5z"/>
<path class="st0" d="M244.6,173.3H34.3c-2.5,0-4.5-2-4.5-4.5v-26.3c0-2.5,2-4.5,4.5-4.5h210.3c2.5,0,4.5,2,4.5,4.5v26.3
	C249.1,171.3,247.1,173.3,244.6,173.3z M34.3,139c-1.9,0-3.5,1.6-3.5,3.5v26.3c0,1.9,1.6,3.5,3.5,3.5h210.3c1.9,0,3.5-1.6,3.5-3.5
	v-26.3c0-1.9-1.6-3.5-3.5-3.5H34.3z"/>
<path class="st0" d="M244.6,134.4H34.3c-2.5,0-4.5-2-4.5-4.5V66.3c0-2.5,2-4.5,4.5-4.5h210.3c2.5,0,4.5,2,4.5,4.5v63.6
	C249.1,132.4,247.1,134.4,244.6,134.4z M34.3,62.8c-1.9,0-3.5,1.6-3.5,3.5v63.6c0,1.9,1.6,3.5,3.5,3.5h210.3c2,0,3.5-1.5,3.5-3.5
	V66.3c0-1.9-1.6-3.5-3.5-3.5H34.3z"/>
<path class="st0" d="M111.8,134.4H34.3c-2.5,0-4.5-2-4.5-4.5v-26.3c0-2.5,2-4.5,4.5-4.5h77.5c2.5,0,4.5,2,4.5,4.5v26.3
	C116.3,132.4,114.3,134.4,111.8,134.4z M34.3,100.1c-1.9,0-3.5,1.6-3.5,3.5v26.3c0,1.9,1.6,3.5,3.5,3.5h77.5c2,0,3.5-1.5,3.5-3.5
	v-26.3c0-1.9-1.6-3.5-3.5-3.5H34.3z"/>
<path class="st0" d="M244.6,134.4h-77.5c-2.5,0-4.5-2-4.5-4.5v-26.3c0-2.5,2-4.5,4.5-4.5h77.5c2.5,0,4.5,2,4.5,4.5v26.3
	C249.1,132.4,247.1,134.4,244.6,134.4z M167.1,100.1c-1.9,0-3.5,1.6-3.5,3.5v26.3c0,1.9,1.6,3.5,3.5,3.5h77.5c2,0,3.5-1.5,3.5-3.5
	v-26.3c0-1.9-1.6-3.5-3.5-3.5H167.1z"/>
<g class="st1">
	<path class="st0" d="M47.6,156.4v3h-1.1v-8.2h2.6c0.6,0,1.1,0.1,1.6,0.3c0.5,0.2,0.8,0.5,1,0.9c0.2,0.4,0.4,0.9,0.4,1.4
		c0,0.5-0.1,1-0.4,1.3c-0.2,0.4-0.6,0.7-1.1,1l1.9,3.2h-1.3l-1.7-3H47.6z M49.2,155.3c0.5,0,0.9-0.1,1.2-0.4
		c0.3-0.3,0.4-0.7,0.4-1.2c0-0.5-0.1-0.9-0.4-1.2c-0.3-0.3-0.7-0.4-1.3-0.4h-1.6v3.2H49.2z"/>
	<path class="st0" d="M57.4,158.6c-0.2,0.2-0.5,0.4-0.9,0.6c-0.4,0.2-0.8,0.3-1.2,0.3c-0.6,0-1.1-0.2-1.4-0.5s-0.5-0.8-0.5-1.4v-4h1
		v3.8c0,0.4,0.1,0.7,0.3,0.9c0.2,0.2,0.5,0.3,0.9,0.3c0.3,0,0.7-0.1,1-0.3c0.3-0.2,0.6-0.5,0.8-0.8v-3.9h1v5.8h-1V158.6z"/>
	<path class="st0" d="M62.4,154.5c-0.2-0.2-0.5-0.2-0.8-0.2c-0.3,0-0.5,0.1-0.7,0.2s-0.3,0.3-0.3,0.5c0,0.2,0.1,0.4,0.4,0.5
		c0.2,0.1,0.6,0.3,1.2,0.4c0.6,0.2,1.1,0.4,1.4,0.6c0.3,0.3,0.5,0.6,0.5,1c0,0.4-0.1,0.7-0.3,1c-0.2,0.3-0.4,0.5-0.8,0.7
		c-0.3,0.2-0.7,0.2-1.2,0.2c-0.7,0-1.3-0.2-1.7-0.5c-0.4-0.3-0.7-0.8-0.7-1.4h1c0.1,0.3,0.2,0.6,0.5,0.7c0.2,0.2,0.6,0.3,1,0.3
		c0.3,0,0.6-0.1,0.8-0.2c0.2-0.1,0.3-0.4,0.3-0.6c0-0.2-0.1-0.4-0.4-0.6c-0.3-0.1-0.7-0.3-1.3-0.5c-0.6-0.1-1-0.4-1.3-0.6
		c-0.3-0.3-0.4-0.6-0.4-1.1c0-0.3,0.1-0.5,0.3-0.8c0.2-0.2,0.4-0.4,0.7-0.6c0.3-0.1,0.6-0.2,1-0.2c0.6,0,1.1,0.2,1.5,0.5
		c0.4,0.3,0.6,0.8,0.7,1.4h-1C62.8,154.9,62.6,154.7,62.4,154.5z"/>
	<path class="st0" d="M66.7,153.5h1.4v0.9h-1.4v3.5c0,0.2,0.1,0.4,0.2,0.5c0.1,0.1,0.3,0.2,0.5,0.2c0.1,0,0.3,0,0.4,0
		c0.1,0,0.2,0,0.2,0v0.9c-0.3,0.1-0.6,0.1-0.9,0.1c-0.5,0-0.8-0.1-1.1-0.4s-0.4-0.6-0.4-1.1v-3.6h-1.2v-0.9h1.2v-1.8l1,0.4V153.5z"
		/>
</g>
<g class="st1">
	<path class="st0" d="M182.4,115.1l1.1,3.8l0.2,1l0.2-1l1.1-3.8h1.1l-1.8,5.8h-1.1l-1.3-4.7l-1.3,4.7h-1.1l-1.8-5.8h1.1l1.1,3.8
		l0.2,1l0.2-1l1.1-3.8H182.4z"/>
	<path class="st0" d="M186.9,120.6c-0.3-0.3-0.5-0.7-0.5-1.2c0-0.5,0.2-1,0.6-1.3c0.4-0.3,0.8-0.5,1.4-0.5l1.8-0.2v-0.4
		c0-0.3-0.1-0.6-0.4-0.8c-0.2-0.2-0.6-0.3-0.9-0.3c-0.3,0-0.6,0.1-0.8,0.2c-0.2,0.2-0.4,0.4-0.4,0.7h-1c0.1-0.6,0.3-1.1,0.8-1.4
		c0.4-0.3,0.9-0.5,1.5-0.5c0.7,0,1.2,0.2,1.6,0.5s0.6,0.8,0.6,1.3v2.7c0,0.2,0,0.3,0.1,0.5c0.1,0.1,0.2,0.2,0.4,0.2
		c0.1,0,0.2,0,0.3,0v0.8c-0.2,0.1-0.5,0.1-0.7,0.1c-0.6,0-1-0.3-1.2-0.9c-0.2,0.3-0.5,0.5-0.9,0.7c-0.4,0.2-0.7,0.3-1.1,0.3
		C187.7,121,187.2,120.9,186.9,120.6z M190.2,119.2v-1.1l-1.8,0.2c-0.3,0-0.6,0.1-0.8,0.3c-0.2,0.2-0.3,0.4-0.3,0.6
		c0,0.3,0.1,0.5,0.3,0.6c0.2,0.1,0.4,0.2,0.7,0.2C189,120.1,189.6,119.8,190.2,119.2z"/>
	<path class="st0" d="M195.6,116.1c-0.2-0.2-0.5-0.2-0.8-0.2c-0.3,0-0.5,0.1-0.7,0.2c-0.2,0.1-0.3,0.3-0.3,0.5
		c0,0.2,0.1,0.4,0.4,0.5s0.6,0.3,1.2,0.4c0.6,0.2,1.1,0.4,1.4,0.6c0.3,0.3,0.5,0.6,0.5,1c0,0.4-0.1,0.7-0.3,1
		c-0.2,0.3-0.4,0.5-0.8,0.7c-0.3,0.2-0.7,0.2-1.2,0.2c-0.7,0-1.3-0.2-1.7-0.5c-0.4-0.3-0.7-0.8-0.7-1.4h1c0.1,0.3,0.2,0.6,0.5,0.7
		c0.2,0.2,0.6,0.3,1,0.3c0.3,0,0.6-0.1,0.8-0.2s0.3-0.4,0.3-0.6c0-0.2-0.1-0.4-0.4-0.6c-0.3-0.1-0.7-0.3-1.3-0.5
		c-0.6-0.1-1-0.4-1.3-0.6c-0.3-0.3-0.4-0.6-0.4-1.1c0-0.3,0.1-0.5,0.3-0.8c0.2-0.2,0.4-0.4,0.7-0.6c0.3-0.1,0.6-0.2,1-0.2
		c0.6,0,1.1,0.2,1.5,0.5c0.4,0.3,0.6,0.8,0.7,1.4h-1C195.9,116.5,195.8,116.2,195.6,116.1z"/>
	<path class="st0" d="M199.3,115.8c0.5-0.5,1.1-0.8,1.8-0.8c0.4,0,0.7,0.1,0.9,0.2c0.2,0.1,0.4,0.3,0.6,0.6c0.6-0.6,1.3-0.8,1.9-0.8
		c0.6,0,1,0.1,1.3,0.4c0.3,0.3,0.4,0.7,0.4,1.2v4.4h-1v-4.1c0-0.3-0.1-0.5-0.2-0.7c-0.2-0.2-0.4-0.3-0.7-0.3c-0.6,0-1.1,0.3-1.5,0.8
		v4.2h-1v-4c0-0.7-0.3-1-0.9-1c-0.3,0-0.5,0.1-0.8,0.3c-0.3,0.2-0.5,0.4-0.7,0.7v4.1h-1v-5.8h1V115.8z"/>
	<path class="st0" d="M208.8,113c0.1,0.1,0.2,0.3,0.2,0.5c0,0.2-0.1,0.4-0.2,0.5c-0.1,0.1-0.3,0.2-0.5,0.2c-0.2,0-0.4-0.1-0.5-0.2
		c-0.1-0.1-0.2-0.3-0.2-0.5c0-0.2,0.1-0.4,0.2-0.5c0.1-0.1,0.3-0.2,0.5-0.2C208.5,112.8,208.7,112.8,208.8,113z M208.9,120.9h-1
		v-5.8h1V120.9z"/>
</g>
<g class="st1">
	<path class="st0" d="M47.4,120.9h-1v-8.5h1V120.9z"/>
	<path class="st0" d="M49.9,113c0.1,0.1,0.2,0.3,0.2,0.5c0,0.2-0.1,0.4-0.2,0.5c-0.1,0.1-0.3,0.2-0.5,0.2s-0.4-0.1-0.5-0.2
		c-0.1-0.1-0.2-0.3-0.2-0.5c0-0.2,0.1-0.4,0.2-0.5c0.1-0.1,0.3-0.2,0.5-0.2S49.7,112.8,49.9,113z M49.9,120.9h-1v-5.8h1V120.9z"/>
	<path class="st0" d="M52.4,115.7c0.2-0.2,0.5-0.4,0.8-0.5c0.3-0.1,0.7-0.2,1.1-0.2c0.5,0,1,0.1,1.4,0.4c0.4,0.2,0.7,0.6,0.9,1.1
		s0.3,1,0.3,1.6c0,0.6-0.1,1.1-0.4,1.6c-0.2,0.5-0.6,0.8-1,1.1c-0.4,0.2-0.9,0.4-1.3,0.4c-0.4,0-0.8-0.1-1.1-0.2
		c-0.3-0.1-0.6-0.3-0.8-0.5v0.6h-1v-8.5h1V115.7z M52.4,118.6c0,0.3,0.1,0.5,0.2,0.8c0.2,0.2,0.4,0.4,0.6,0.6s0.5,0.2,0.8,0.2
		c0.5,0,1-0.2,1.3-0.5s0.5-0.9,0.5-1.6s-0.2-1.2-0.5-1.6s-0.8-0.5-1.3-0.5c-0.3,0-0.6,0.1-0.8,0.2c-0.3,0.1-0.5,0.3-0.6,0.6
		c-0.2,0.2-0.2,0.5-0.2,0.8V118.6z"/>
	<path class="st0" d="M58.1,115.1h1v0.6c0.2-0.2,0.5-0.4,0.8-0.5c0.3-0.1,0.7-0.2,1.1-0.2c0.5,0,0.9,0.1,1.3,0.4
		c0.4,0.2,0.7,0.6,1,1.1c0.2,0.5,0.4,1,0.4,1.6c0,0.6-0.1,1.1-0.3,1.6c-0.2,0.5-0.5,0.8-0.9,1.1c-0.4,0.2-0.9,0.4-1.4,0.4
		c-0.4,0-0.7-0.1-1.1-0.2c-0.3-0.1-0.6-0.3-0.8-0.5v3h-1V115.1z M62.1,116.4c-0.3-0.4-0.8-0.5-1.3-0.5c-0.3,0-0.6,0.1-0.8,0.2
		c-0.3,0.1-0.5,0.3-0.6,0.6s-0.2,0.5-0.2,0.8v1.1c0,0.3,0.1,0.5,0.2,0.8c0.2,0.2,0.4,0.4,0.6,0.6c0.3,0.1,0.5,0.2,0.8,0.2
		c0.5,0,1-0.2,1.3-0.5s0.5-0.9,0.5-1.6S62.4,116.8,62.1,116.4z"/>
	<path class="st0" d="M67.8,116.9c0.3-0.3,0.6-0.6,0.8-0.9s0.3-0.6,0.3-1c0-0.4-0.1-0.8-0.4-1c-0.3-0.2-0.7-0.4-1.1-0.4
		c-0.5,0-0.9,0.1-1.2,0.4c-0.3,0.3-0.5,0.7-0.5,1.2h-1.1c0-0.5,0.2-1,0.4-1.4c0.2-0.4,0.6-0.7,1-0.9c0.4-0.2,0.8-0.3,1.3-0.3
		c0.5,0,1,0.1,1.4,0.3c0.4,0.2,0.7,0.5,1,0.8c0.2,0.4,0.3,0.8,0.3,1.3c0,0.5-0.1,1-0.3,1.4c-0.2,0.4-0.6,0.8-1,1.2l-2.7,2.3h4.2v1
		h-5.6v-1L67.8,116.9z"/>
	<path class="st0" d="M71.1,115.1h1v0.6c0.2-0.2,0.5-0.4,0.8-0.5c0.3-0.1,0.7-0.2,1.1-0.2c0.5,0,0.9,0.1,1.3,0.4
		c0.4,0.2,0.7,0.6,1,1.1c0.2,0.5,0.4,1,0.4,1.6c0,0.6-0.1,1.1-0.3,1.6c-0.2,0.5-0.5,0.8-0.9,1.1c-0.4,0.2-0.9,0.4-1.4,0.4
		c-0.4,0-0.7-0.1-1.1-0.2c-0.3-0.1-0.6-0.3-0.8-0.5v3h-1V115.1z M75.1,116.4c-0.3-0.4-0.8-0.5-1.3-0.5c-0.3,0-0.6,0.1-0.8,0.2
		c-0.3,0.1-0.5,0.3-0.6,0.6s-0.2,0.5-0.2,0.8v1.1c0,0.3,0.1,0.5,0.2,0.8c0.2,0.2,0.4,0.4,0.6,0.6c0.3,0.1,0.5,0.2,0.8,0.2
		c0.5,0,1-0.2,1.3-0.5s0.5-0.9,0.5-1.6S75.4,116.8,75.1,116.4z"/>
</g>
<g class="st1">
	<path class="st0" d="M51.5,37.4c0.5,0.5,0.8,1.1,0.8,2c0,0.8-0.3,1.5-0.8,2S50.2,42,49.3,42h-1.7v2.8h-1.1v-8.2h2.8
		C50.2,36.7,50.9,36.9,51.5,37.4z M49.3,41c1.3,0,1.9-0.5,1.9-1.6c0-1.1-0.6-1.6-1.9-1.6h-1.7V41H49.3z"/>
	<path class="st0" d="M57.6,39.3c0.5,0.3,0.8,0.6,1.1,1.1c0.3,0.5,0.4,1,0.4,1.6c0,0.6-0.1,1.1-0.4,1.6c-0.3,0.5-0.6,0.8-1.1,1.1
		c-0.5,0.3-1,0.4-1.6,0.4s-1.1-0.1-1.6-0.4c-0.5-0.3-0.8-0.6-1.1-1.1c-0.3-0.5-0.4-1-0.4-1.6c0-0.6,0.1-1.1,0.4-1.6
		c0.3-0.5,0.6-0.8,1.1-1.1c0.5-0.3,1-0.4,1.6-0.4S57.1,39,57.6,39.3z M54.6,40.4c-0.4,0.4-0.6,0.9-0.6,1.6s0.2,1.2,0.6,1.6
		S55.5,44,56,44s1-0.2,1.4-0.5s0.6-0.9,0.6-1.6s-0.2-1.2-0.6-1.6s-0.8-0.5-1.4-0.5S55,40,54.6,40.4z"/>
	<path class="st0" d="M61.2,44.9h-1v-8.5h1V44.9z"/>
	<path class="st0" d="M63.7,42.2v2.6h-1v-8.5h1v4.8l2.1-2.1h1.3l-2.6,2.6l2.8,3.2H66L63.7,42.2z"/>
	<path class="st0" d="M68.3,44.5c-0.3-0.3-0.5-0.7-0.5-1.2c0-0.5,0.2-1,0.6-1.3c0.4-0.3,0.8-0.5,1.4-0.5l1.8-0.2v-0.4
		c0-0.3-0.1-0.6-0.4-0.8c-0.2-0.2-0.6-0.3-0.9-0.3c-0.3,0-0.6,0.1-0.8,0.2c-0.2,0.2-0.4,0.4-0.4,0.7h-1c0.1-0.6,0.3-1.1,0.8-1.4
		c0.4-0.3,0.9-0.5,1.5-0.5c0.7,0,1.2,0.2,1.6,0.5c0.4,0.3,0.6,0.8,0.6,1.3v2.7c0,0.2,0,0.3,0.1,0.5c0.1,0.1,0.2,0.2,0.4,0.2
		c0.1,0,0.2,0,0.3,0v0.8c-0.2,0.1-0.5,0.1-0.7,0.1c-0.6,0-1-0.3-1.2-0.9c-0.2,0.3-0.5,0.5-0.9,0.7C70.4,44.9,70,45,69.7,45
		C69.1,45,68.7,44.8,68.3,44.5z M71.6,43.1v-1.1l-1.8,0.2c-0.3,0-0.6,0.1-0.8,0.3c-0.2,0.2-0.3,0.4-0.3,0.6c0,0.3,0.1,0.5,0.3,0.6
		s0.4,0.2,0.7,0.2C70.4,44,71,43.7,71.6,43.1z"/>
	<path class="st0" d="M79.5,44.9h-1v-0.6c-0.2,0.2-0.5,0.4-0.8,0.5C77.4,44.9,77,45,76.6,45c-0.5,0-0.9-0.1-1.3-0.4
		c-0.4-0.2-0.7-0.6-1-1.1c-0.2-0.5-0.4-1-0.4-1.6c0-0.6,0.1-1.1,0.3-1.6s0.5-0.8,0.9-1.1c0.4-0.2,0.9-0.4,1.4-0.4
		c0.4,0,0.7,0.1,1.1,0.2c0.3,0.1,0.6,0.3,0.8,0.5v-3.3h1V44.9z M75.5,43.5c0.3,0.4,0.8,0.5,1.3,0.5c0.3,0,0.6-0.1,0.8-0.2
		s0.5-0.3,0.6-0.6c0.2-0.2,0.2-0.5,0.2-0.8v-1.1c0-0.3-0.1-0.5-0.2-0.8c-0.2-0.2-0.4-0.4-0.6-0.6c-0.3-0.1-0.5-0.2-0.8-0.2
		c-0.5,0-1,0.2-1.3,0.5S75,41.2,75,41.9S75.1,43.2,75.5,43.5z"/>
	<path class="st0" d="M85.2,39.3c0.5,0.3,0.8,0.6,1.1,1.1c0.3,0.5,0.4,1,0.4,1.6c0,0.6-0.1,1.1-0.4,1.6c-0.3,0.5-0.6,0.8-1.1,1.1
		c-0.5,0.3-1,0.4-1.6,0.4s-1.1-0.1-1.6-0.4c-0.5-0.3-0.8-0.6-1.1-1.1c-0.3-0.5-0.4-1-0.4-1.6c0-0.6,0.1-1.1,0.4-1.6
		c0.3-0.5,0.6-0.8,1.1-1.1c0.5-0.3,1-0.4,1.6-0.4S84.8,39,85.2,39.3z M82.2,40.4c-0.4,0.4-0.6,0.9-0.6,1.6s0.2,1.2,0.6,1.6
		s0.8,0.5,1.4,0.5s1-0.2,1.4-0.5s0.6-0.9,0.6-1.6s-0.2-1.2-0.6-1.6s-0.8-0.5-1.4-0.5S82.6,40,82.2,40.4z"/>
	<path class="st0" d="M89.2,39h1.4V40h-1.4v3.5c0,0.2,0.1,0.4,0.2,0.5c0.1,0.1,0.3,0.2,0.5,0.2c0.1,0,0.3,0,0.4,0c0.1,0,0.2,0,0.2,0
		v0.9C90.3,44.9,90,45,89.6,45c-0.5,0-0.8-0.1-1.1-0.4s-0.4-0.6-0.4-1.1V40H87V39h1.2v-1.8l1,0.4V39z"/>
</g>
<g class="st1">
	<path class="st2" d="M47.9,80.2c0.3,0.2,0.9,0.4,1.6,0.5c0.8,0.2,1.4,0.5,1.9,0.9c0.4,0.4,0.6,0.9,0.6,1.6c0,0.5-0.1,1-0.4,1.3
		s-0.6,0.7-1,0.9c-0.4,0.2-0.9,0.3-1.5,0.3c-0.5,0-1-0.1-1.5-0.3c-0.5-0.2-0.8-0.5-1.1-0.9c-0.3-0.4-0.4-0.9-0.5-1.4h1.1
		c0.1,0.5,0.3,0.9,0.6,1.2s0.8,0.4,1.3,0.4c0.5,0,0.9-0.1,1.3-0.4c0.3-0.3,0.5-0.6,0.5-1.1c0-0.3-0.1-0.6-0.2-0.8
		c-0.1-0.2-0.4-0.4-0.7-0.5c-0.3-0.1-0.7-0.3-1.3-0.4c-0.8-0.2-1.4-0.4-1.8-0.8c-0.4-0.3-0.6-0.8-0.6-1.4c0-0.4,0.1-0.8,0.3-1.1
		s0.5-0.5,0.9-0.7c0.4-0.2,0.8-0.3,1.3-0.3c0.8,0,1.5,0.2,2,0.6c0.5,0.4,0.8,1,0.8,1.7h-1.1c-0.1-0.4-0.2-0.8-0.5-1
		c-0.3-0.2-0.7-0.3-1.2-0.3c-0.4,0-0.8,0.1-1.1,0.3c-0.3,0.2-0.4,0.4-0.4,0.7C47.4,79.7,47.6,80,47.9,80.2z"/>
	<path class="st2" d="M57.3,85c-0.2,0.2-0.5,0.4-0.9,0.6c-0.4,0.2-0.8,0.3-1.2,0.3c-0.6,0-1.1-0.2-1.4-0.5s-0.5-0.8-0.5-1.4v-4h1
		v3.8c0,0.4,0.1,0.7,0.3,0.9c0.2,0.2,0.5,0.3,0.9,0.3c0.3,0,0.7-0.1,1-0.3c0.3-0.2,0.6-0.5,0.8-0.8v-3.9h1v5.8h-1V85z"/>
	<path class="st2" d="M60.8,80.5c0.2-0.2,0.5-0.4,0.8-0.5c0.3-0.1,0.7-0.2,1.1-0.2c0.5,0,1,0.1,1.4,0.4c0.4,0.2,0.7,0.6,0.9,1.1
		s0.3,1,0.3,1.6c0,0.6-0.1,1.1-0.4,1.6c-0.2,0.5-0.6,0.8-1,1.1c-0.4,0.2-0.9,0.4-1.3,0.4c-0.4,0-0.8-0.1-1.1-0.2
		c-0.3-0.1-0.6-0.3-0.8-0.5v0.6h-1v-8.5h1V80.5z M60.8,83.4c0,0.3,0.1,0.5,0.2,0.8c0.2,0.2,0.4,0.4,0.6,0.6s0.5,0.2,0.8,0.2
		c0.5,0,1-0.2,1.3-0.5s0.5-0.9,0.5-1.6s-0.2-1.2-0.5-1.6s-0.8-0.5-1.3-0.5c-0.3,0-0.6,0.1-0.8,0.2c-0.3,0.1-0.5,0.3-0.6,0.6
		c-0.2,0.2-0.2,0.5-0.2,0.8V83.4z"/>
	<path class="st2" d="M69.1,80.9c-0.2-0.2-0.5-0.2-0.8-0.2c-0.3,0-0.5,0.1-0.7,0.2s-0.3,0.3-0.3,0.5c0,0.2,0.1,0.4,0.4,0.5
		c0.2,0.1,0.6,0.3,1.2,0.4c0.6,0.2,1.1,0.4,1.4,0.6c0.3,0.3,0.5,0.6,0.5,1c0,0.4-0.1,0.7-0.3,1c-0.2,0.3-0.4,0.5-0.8,0.7
		c-0.3,0.2-0.7,0.2-1.2,0.2c-0.7,0-1.3-0.2-1.7-0.5c-0.4-0.3-0.7-0.8-0.7-1.4h1c0.1,0.3,0.2,0.6,0.5,0.7c0.2,0.2,0.6,0.3,1,0.3
		c0.3,0,0.6-0.1,0.8-0.2c0.2-0.1,0.3-0.4,0.3-0.6c0-0.2-0.1-0.4-0.4-0.6c-0.3-0.1-0.7-0.3-1.3-0.5c-0.6-0.1-1-0.4-1.3-0.6
		c-0.3-0.3-0.4-0.6-0.4-1.1c0-0.3,0.1-0.5,0.3-0.8c0.2-0.2,0.4-0.4,0.7-0.6c0.3-0.1,0.6-0.2,1-0.2c0.6,0,1.1,0.2,1.5,0.5
		c0.4,0.3,0.6,0.8,0.7,1.4h-1C69.4,81.3,69.3,81.1,69.1,80.9z"/>
	<path class="st2" d="M73.4,79.9h1.4v0.9h-1.4v3.5c0,0.2,0.1,0.4,0.2,0.5c0.1,0.1,0.3,0.2,0.5,0.2c0.1,0,0.3,0,0.4,0
		c0.1,0,0.2,0,0.2,0v0.9c-0.3,0.1-0.6,0.1-0.9,0.1c-0.5,0-0.8-0.1-1.1-0.4s-0.4-0.6-0.4-1.1v-3.6h-1.2v-0.9h1.2v-1.8l1,0.4V79.9z"/>
	<path class="st2" d="M76.8,80.6c0.2-0.3,0.5-0.5,0.8-0.6c0.3-0.2,0.6-0.2,0.9-0.2c0.2,0,0.4,0,0.5,0.1l-0.2,0.9c-0.1,0-0.2,0-0.4,0
		c-0.3,0-0.6,0.1-0.9,0.3c-0.3,0.2-0.5,0.5-0.7,0.8v3.9h-1v-5.8h1V80.6z"/>
	<path class="st2" d="M79.8,85.4c-0.3-0.3-0.5-0.7-0.5-1.2c0-0.5,0.2-1,0.6-1.3c0.4-0.3,0.8-0.5,1.4-0.5l1.8-0.2v-0.4
		c0-0.3-0.1-0.6-0.4-0.8c-0.2-0.2-0.6-0.3-0.9-0.3c-0.3,0-0.6,0.1-0.8,0.2c-0.2,0.2-0.4,0.4-0.4,0.7h-1c0.1-0.6,0.3-1.1,0.8-1.4
		c0.4-0.3,0.9-0.5,1.5-0.5c0.7,0,1.2,0.2,1.6,0.5c0.4,0.3,0.6,0.8,0.6,1.3v2.7c0,0.2,0,0.3,0.1,0.5c0.1,0.1,0.2,0.2,0.4,0.2
		c0.1,0,0.2,0,0.3,0v0.8c-0.2,0.1-0.5,0.1-0.7,0.1c-0.6,0-1-0.3-1.2-0.9c-0.2,0.3-0.5,0.5-0.9,0.7c-0.4,0.2-0.7,0.3-1.1,0.3
		C80.6,85.8,80.2,85.7,79.8,85.4z M83.1,84v-1.1l-1.8,0.2c-0.3,0-0.6,0.1-0.8,0.3c-0.2,0.2-0.3,0.4-0.3,0.6c0,0.3,0.1,0.5,0.3,0.6
		s0.4,0.2,0.7,0.2C81.9,84.9,82.5,84.6,83.1,84z"/>
	<path class="st2" d="M87.3,79.9h1.4v0.9h-1.4v3.5c0,0.2,0.1,0.4,0.2,0.5c0.1,0.1,0.3,0.2,0.5,0.2c0.1,0,0.3,0,0.4,0
		c0.1,0,0.2,0,0.2,0v0.9c-0.3,0.1-0.6,0.1-0.9,0.1c-0.5,0-0.8-0.1-1.1-0.4s-0.4-0.6-0.4-1.1v-3.6h-1.2v-0.9h1.2v-1.8l1,0.4V79.9z"/>
	<path class="st2" d="M90.5,83.1c0,0.6,0.2,1,0.5,1.3s0.8,0.5,1.3,0.5c0.4,0,0.8-0.1,1.1-0.3c0.3-0.2,0.5-0.5,0.6-0.9h1
		c-0.2,0.7-0.5,1.2-0.9,1.6c-0.5,0.4-1,0.6-1.8,0.6c-0.6,0-1.1-0.1-1.5-0.4c-0.4-0.3-0.8-0.6-1-1.1c-0.2-0.5-0.3-1-0.3-1.6
		c0-0.6,0.1-1.1,0.4-1.6c0.3-0.5,0.6-0.8,1-1.1c0.4-0.3,0.9-0.4,1.4-0.4c0.5,0,1,0.1,1.4,0.4c0.4,0.2,0.7,0.6,1,1s0.4,1,0.4,1.6v0.4
		H90.5z M94.1,82.2c0-0.5-0.2-0.9-0.6-1.1s-0.7-0.4-1.2-0.4c-0.5,0-0.9,0.1-1.2,0.4c-0.3,0.3-0.5,0.7-0.6,1.1H94.1z"/>
</g>
</svg>
