<?xml version="1.0" encoding="utf-8"?>
<!-- Generator: Adobe Illustrator 24.1.3, SVG Export Plug-In . SVG Version: 6.00 Build 0)  -->
<svg version="1.1" id="Layer_1" xmlns="http://www.w3.org/2000/svg" xmlns:xlink="http://www.w3.org/1999/xlink" x="0px" y="0px"
	 viewBox="0 0 508.7 150" style="enable-background:new 0 0 508.7 150;" xml:space="preserve">
<style type="text/css">
	.st0{fill:#231F20;}
	.st1{fill:#E6007A;}
</style>
<g>
	<g>
		<path class="st0" d="M59.3,24.1c0,6.7-2.2,11.9-6.6,15.4c-4.4,3.5-10.9,5.3-19.6,5.3H22v19.9H0V2.2h33.1
			C50.6,2.2,59.3,9.5,59.3,24.1z M35.4,28.2c1.2-0.9,1.8-2.4,1.8-4.4c0-2-0.6-3.5-1.8-4.4c-1.2-0.9-3.2-1.4-5.9-1.4H22v11.7h7.5
			C32.2,29.6,34.2,29.2,35.4,28.2z"/>
		<path class="st0" d="M117.4,9.7c5.6,5.6,8.4,13.5,8.4,23.7c0,10.2-2.8,18-8.4,23.7c-5.6,5.6-13.4,8.5-23.3,8.5
			c-6.6,0-12.2-1.3-17-3.8c-4.8-2.5-8.4-6.2-11-11s-3.8-10.6-3.8-17.4c0-6.7,1.3-12.5,3.8-17.4s6.2-8.5,11-11
			c4.8-2.5,10.4-3.8,17-3.8C104,1.3,111.8,4.1,117.4,9.7z M87,21.5c-1.5,2.5-2.2,6.4-2.2,11.9c0,5.4,0.7,9.4,2.2,11.9
			c1.5,2.5,3.8,3.7,7,3.7c3.2,0,5.5-1.2,7-3.7c1.4-2.5,2.2-6.4,2.2-11.9c0-5.4-0.7-9.4-2.2-11.9c-1.5-2.5-3.8-3.7-7-3.7
			C90.8,17.8,88.5,19.1,87,21.5z"/>
		<path class="st0" d="M182,48.5v16.2h-50.3V2.2h22v46.2H182z"/>
		<path class="st0" d="M212.9,41.3l-5.1,7v16.4h-22V2.2h22v23.3l16.3-23.3h23.5L228.4,27l20.8,37.6h-24.7L212.9,41.3z"/>
		<path class="st0" d="M291,52.7h-16.8l-2.9,11.9h-21.9l20.2-62.4H296l20.3,62.4h-22.5L291,52.7z M287.8,39l-5-20.8h-0.3L280,28.8
			L277.5,39H287.8z"/>
		<path class="st0" d="M371.5,10.3c5,5.4,7.5,13.1,7.5,23.1c0,10-2.5,17.7-7.5,23.1c-5,5.4-12.4,8.1-22.1,8.1h-30.6V2.2h30.6
			C359.1,2.2,366.5,4.9,371.5,10.3z M354.4,45.3c1.4-2.4,2.2-6.4,2.2-11.9c0-5.5-0.7-9.5-2.2-11.9c-1.5-2.4-4.1-3.6-8-3.6h-5.5v31
			h5.5C350.2,48.9,352.9,47.7,354.4,45.3z"/>
		<path class="st0" d="M437.6,9.7c5.6,5.6,8.4,13.5,8.4,23.7c0,10.2-2.8,18-8.4,23.7c-5.6,5.6-13.3,8.5-23.3,8.5
			c-6.6,0-12.2-1.3-17-3.8c-4.8-2.5-8.4-6.2-11-11c-2.6-4.8-3.8-10.6-3.8-17.4c0-6.7,1.3-12.5,3.8-17.4c2.6-4.8,6.2-8.5,11-11
			c4.8-2.5,10.4-3.8,17-3.8C424.2,1.3,432,4.1,437.6,9.7z M407.2,21.5C405.8,24,405,28,405,33.4c0,5.4,0.7,9.4,2.2,11.9
			c1.5,2.5,3.8,3.7,7,3.7c3.2,0,5.5-1.2,7-3.7c1.4-2.5,2.2-6.4,2.2-11.9c0-5.4-0.7-9.4-2.2-11.9c-1.5-2.5-3.8-3.7-7-3.7
			C411.1,17.8,408.7,19.1,407.2,21.5z"/>
		<path class="st0" d="M508.7,18.4h-19.5v46.2h-22V18.4h-19.6V2.2h61.1V18.4z"/>
		<path class="st0" d="M118.6,147.5h-22V85.1h22V147.5z"/>
		<path class="st0" d="M170,86.3c4.4,1.5,8.7,4,13,7.8l-9.6,13.7c-2.8-2.6-5.7-4.6-8.7-5.7c-2.9-1.2-6.2-1.7-9.8-1.7
			c-2.2,0-4,0.3-5.3,1c-1.3,0.7-2,1.5-2,2.6c0,0.7,0.6,1.2,1.9,1.6c1.3,0.4,3.5,0.9,6.6,1.4c9.1,1.6,15.7,4.1,19.7,7.4
			c4,3.3,6,8,6,13.9c0,4.3-1.2,7.9-3.7,11c-2.5,3-5.8,5.3-10,6.9c-4.2,1.5-9,2.3-14.2,2.3c-7.4,0-13.3-0.7-17.7-2.1
			c-4.4-1.4-8.7-3.6-13-6.7l9.5-14.9c2.6,2.6,5.5,4.5,8.7,5.7c3.2,1.2,6.8,1.8,10.9,1.8c4.6,0,6.9-0.9,6.9-2.8c0-1-0.7-1.8-2.2-2.3
			c-1.5-0.5-3.8-1-7.1-1.6c-4.8-0.9-8.9-1.9-12.2-3c-3.4-1.1-6.3-3.1-8.9-5.8c-2.6-2.7-3.8-6.4-3.8-11.2c0-4.3,1.1-8,3.4-11.3
			c2.3-3.2,5.6-5.7,10-7.5c4.4-1.8,9.7-2.7,15.8-2.7C160.4,84.1,165.6,84.9,170,86.3z"/>
		<path class="st0" d="M260.4,131.3v16.2h-50.3V85.1h22v46.2H260.4z"/>
		<path class="st0" d="M286.2,147.5h-22V85.1h22V147.5z"/>
		<path class="st0" d="M336,147.5h-26.2l-21.1-62.4h23l8.6,34.1l3,12.2l2.8-12l8.8-34.3h22.1L336,147.5z"/>
		<path class="st0" d="M412.6,131.3v16.2h-53V85.1h51.8v16.2h-29.8v7.8h24v14.9h-24v7.4H412.6z"/>
	</g>
	<path class="st1" d="M422.9,148.1c8.1,0,14.6-6.5,14.6-14.6c0-8.1-6.6-14.6-14.6-14.6c-8.1,0-14.6,6.5-14.6,14.6
		C408.2,141.6,414.8,148.1,422.9,148.1"/>
</g>
</svg>
