<svg xmlns="http://www.w3.org/2000/svg" viewBox="0 0 100 100"><defs><style>.cls-1{fill:#172026;}</style></defs><title>ocean-protocol</title><g id="Layer_2" data-name="Layer 2"><g id="Layer_1-2" data-name="Layer 1"><path class="cls-1" d="M50,0a50,50,0,1,0,50,50A50,50,0,0,0,50,0ZM29.79,63.79a.9.9,0,1,1,.9-.89A.89.89,0,0,1,29.79,63.79Zm0-5.24a1.73,1.73,0,1,1,1.73-1.72A1.72,1.72,0,0,1,29.79,58.55Zm0-6.89a2.56,2.56,0,1,1,2.55-2.56A2.56,2.56,0,0,1,29.79,51.66Zm-.07-8.56a3.45,3.45,0,1,1,3.45-3.44A3.44,3.44,0,0,1,29.72,43.1ZM39.86,68.9a.9.9,0,1,1,.9-.9A.9.9,0,0,1,39.86,68.9Zm0-5.24a1.73,1.73,0,1,1,1.73-1.73A1.73,1.73,0,0,1,39.86,63.66Zm0-6.9a2.55,2.55,0,1,1,2.55-2.55A2.55,2.55,0,0,1,39.86,56.76Zm.07-8.69a3.45,3.45,0,1,1,3.45-3.45A3.46,3.46,0,0,1,39.93,48.07Zm0-10.07a3.45,3.45,0,1,1,3.45-3.45A3.45,3.45,0,0,1,39.93,38ZM50.07,74a.9.9,0,1,1,.9-.9A.9.9,0,0,1,50.07,74Zm0-5.24A1.73,1.73,0,1,1,51.79,67,1.73,1.73,0,0,1,50.07,68.76Zm0-7a2.55,2.55,0,1,1,2.55-2.55A2.55,2.55,0,0,1,50.07,61.72ZM50,53.17a3.45,3.45,0,1,1,3.45-3.45A3.45,3.45,0,0,1,50,53.17ZM50,43.1a3.45,3.45,0,1,1,3.45-3.44A3.45,3.45,0,0,1,50,43.1Zm0-10.2a3.45,3.45,0,1,1,3.45-3.45A3.46,3.46,0,0,1,50,32.9Zm10.14,36A.9.9,0,1,1,61,68,.9.9,0,0,1,60.14,68.9Zm0-5.24a1.73,1.73,0,1,1,1.72-1.73A1.74,1.74,0,0,1,60.14,63.66Zm0-6.9a2.55,2.55,0,1,1,2.55-2.55A2.55,2.55,0,0,1,60.14,56.76Zm.07-8.69a3.45,3.45,0,1,1,3.45-3.45A3.45,3.45,0,0,1,60.21,48.07Zm0-10.07a3.45,3.45,0,1,1,3.45-3.45A3.44,3.44,0,0,1,60.21,38ZM70.35,63.79a.9.9,0,1,1,.89-.89A.89.89,0,0,1,70.35,63.79Zm0-5.24a1.73,1.73,0,1,1,1.73-1.72A1.72,1.72,0,0,1,70.34,58.55Zm0-6.89A2.56,2.56,0,1,1,72.9,49.1,2.56,2.56,0,0,1,70.35,51.66Zm-.07-8.56a3.45,3.45,0,1,1,3.44-3.44A3.44,3.44,0,0,1,70.28,43.1Z"/></g></g></svg>
