<?xml version="1.0" encoding="utf-8"?>
<!-- Generator: Adobe Illustrator 22.1.0, SVG Export Plug-In . SVG Version: 6.00 Build 0)  -->
<svg version="1.1" id="Layer_1" xmlns="http://www.w3.org/2000/svg" xmlns:xlink="http://www.w3.org/1999/xlink" x="0px" y="0px"
	 viewBox="0 0 37.4 37.4" style="enable-background:new 0 0 37.4 37.4;" xml:space="preserve">
<style type="text/css">
	.st0{fill:#E6007A;}
</style>
<title>logo-circle-discourse</title>
<g id="Layer_2_1_">
	<g id="Layer_1-2">
		<path class="st0" d="M18.7,13.4c-3,0-5.4,2.4-5.4,5.4c0,0.9,0.2,1.8,0.6,2.6l-1,3.2l3.4-0.9l0,0c0.7,0.4,1.5,0.5,2.3,0.5l0,0
			c3,0,5.4-2.4,5.4-5.4S21.7,13.4,18.7,13.4L18.7,13.4z"/>
		<path class="st0" d="M18.7,0C8.4,0,0,8.4,0,18.7s8.4,18.7,18.7,18.7S37.4,29,37.4,18.7l0,0C37.4,8.4,29,0,18.7,0z M18.8,28.3H9.2
			v-9.6l0,0c0.1-5.2,4.3-9.3,9.5-9.3h0.1c5.2,0,9.5,4.3,9.5,9.5S24.1,28.4,18.8,28.3L18.8,28.3z"/>
	</g>
</g>
</svg>
