<?xml version="1.0" encoding="utf-8"?>
<!-- Generator: Adobe Illustrator 22.1.0, SVG Export Plug-In . SVG Version: 6.00 Build 0)  -->
<svg version="1.1" id="Layer_1" xmlns="http://www.w3.org/2000/svg" xmlns:xlink="http://www.w3.org/1999/xlink" x="0px" y="0px"
	 viewBox="0 0 100 100" style="enable-background:new 0 0 100 100;" xml:space="preserve">
<style type="text/css">
	.st0{fill:#172026;}
</style>
<title>agoric</title>
<g id="Clip-14">
</g>
<path class="st0" d="M50,0C22.4,0,0,22.4,0,50s22.4,50,50,50s50-22.4,50-50S77.6,0,50,0z M54.1,61.8c2.4,0,4.5-1.1,5.9-2.7l2.4,3.1
	c-2.1,2.1-5.1,3.5-8.4,3.5c-6.4,0-11.6-5.1-11.6-11.4c0-6.3,5.2-11.4,11.6-11.4c3.6,0,6.8,1.6,8.9,4.1l-3,2.4
	c-1.4-1.7-3.6-2.7-5.9-2.7c-4.3,0-7.8,3.4-7.8,7.6C46.4,58.4,49.9,61.8,54.1,61.8z M66.5,43.7c-3-3.6-7.5-5.8-12.6-5.8
	c-9.1,0-16.4,7.3-16.4,16.4S44.9,70.6,54,70.6V74c-11,0-19.8-8.9-19.8-19.8S43,34.4,54,34.4c6.1,0,11.6,2.8,15.2,7.1L66.5,43.7z
	 M71.9,38.7c-4.4-5.2-10.9-8.5-18.2-8.5c-13.1,0-23.8,10.7-23.8,23.9c0,3.6,0.8,7,2.2,10.1L29,65.6c-1.6-3.5-2.5-7.4-2.5-11.5
	c0-15.1,12.2-27.3,27.2-27.3c8.4,0,15.8,3.8,20.8,9.8L71.9,38.7z"/>
</svg>
