<svg xmlns="http://www.w3.org/2000/svg" viewBox="0 0 100 100"><defs><style>.cls-1{fill:#172026;}</style></defs><title>edgeware</title><g id="Layer_2" data-name="Layer 2"><g id="Layer_1-2" data-name="Layer 1"><path class="cls-1" d="M50,0a50,50,0,1,0,50,50A50,50,0,0,0,50,0ZM43.93,53.8c-.3.52-.57,1-.91,1.62l-7.18-4.15v8.14H33.92V51.26L26.79,55.4l-1-1.5v-.24l7.33-4.06-7.33-4.07v-.24l1-1.48,7.11,4.12V39.78h1.92v8.15L43,43.77l.93,1.63-7.15,4.19ZM62.57,41.31h1.7V51.45h-1.7ZM54.08,58.87l-1-1.62L62,52.13l1,1.62Zm18.76,0L64,53.76c.32-.57.6-1,.94-1.63l8.86,5.12Z"/></g></g></svg>
