<svg xmlns="http://www.w3.org/2000/svg" viewBox="0 0 100 100"><defs><style>.cls-1{fill:#172026;}</style></defs><title>ewf</title><g id="Layer_2" data-name="Layer 2"><g id="Layer_1-2" data-name="Layer 1"><path class="cls-1" d="M50,0a50,50,0,1,0,50,50A50,50,0,0,0,50,0ZM40.06,69.6a11.14,11.14,0,0,1-8.26-2.48c-3-2.43-5.07-6.31-5.79-11a.22.22,0,0,1,.08-.25L29,54.4c.15-.1.16.13.17.23.45,4.32,2.13,7.84,4.71,9.91a7.7,7.7,0,0,0,5.82,1.77,11.87,11.87,0,0,0,5.46-2.08,14.38,14.38,0,0,0,2.23,2.48A15.29,15.29,0,0,1,40.06,69.6ZM73.57,53.9A20.89,20.89,0,0,1,67,66.49a12.49,12.49,0,0,1-8.26,3.18,11.06,11.06,0,0,1-1.4-.08,15.43,15.43,0,0,1-8.29-3.66,26.91,26.91,0,0,1-2.89-3A28,28,0,0,1,40.82,49.8c-.49-4,.49-8.73,3-11.46A6.48,6.48,0,0,1,48.69,36a6.63,6.63,0,0,1,4.87,2.33c2.59,2.94,3.43,6.9,3.06,11.44A26.53,26.53,0,0,1,51.93,62a13.26,13.26,0,0,1-2.27-2.49,23.39,23.39,0,0,0,3.68-10.08c.37-4.07-.43-6.76-2.26-8.83a3.36,3.36,0,0,0-2.39-1.22,3.12,3.12,0,0,0-2.36,1.2c-1.72,1.92-2.67,4.73-2.23,8.85a23.94,23.94,0,0,0,4.12,10.71.71.71,0,0,0,.1.14h0a14,14,0,0,0,3.07,3.31h0a12.24,12.24,0,0,0,6.37,2.77C62.59,66.88,69,62.9,70.39,54a40.28,40.28,0,0,0-2.92-22.07.13.13,0,0,1,0-.18l2.72-1.39c.13-.07.19,0,.2.06A45.47,45.47,0,0,1,73.57,53.9Z"/></g></g></svg>
