<?xml version="1.0" encoding="utf-8"?>
<!-- Generator: Adobe Illustrator 22.1.0, SVG Export Plug-In . SVG Version: 6.00 Build 0)  -->
<svg version="1.1" id="Layer_1" xmlns="http://www.w3.org/2000/svg" xmlns:xlink="http://www.w3.org/1999/xlink" x="0px" y="0px"
	 viewBox="0 0 100 100" style="enable-background:new 0 0 100 100;" xml:space="preserve">
<style type="text/css">
	.st0{fill:#172026;}
</style>
<title>agoric</title>
<g id="Clip-14">
</g>
<path class="st0" d="M50,0C22.4,0,0,22.4,0,50s22.4,50,50,50s50-22.4,50-50S77.6,0,50,0z M74,57h-6.9c0-3.8-3-6.9-6.8-6.9
	c-3.8,0-6.9,3-6.9,6.8c0,0.1,0,0.1,0,0.2h-6.9c0-3.8-3-6.9-6.8-6.9c-3.8,0-6.9,3-6.9,6.8c0,0.1,0,0.1,0,0.2H26c0-0.1,0-0.3,0-0.4
	c0,0,0,0,0-0.1c0-0.1,0-0.2,0-0.4c0,0,0,0,0-0.1c0-0.1,0-0.3,0-0.4c0,0,0,0,0,0c0.2-2,0.8-3.9,1.8-5.6c0,0,0,0,0,0
	c0,0,0.1-0.1,0.1-0.1c0-0.1,0.1-0.1,0.1-0.2c0,0,0.1-0.1,0.1-0.1c0-0.1,0.1-0.1,0.1-0.2c0,0,0.1-0.1,0.1-0.1c0,0,0.1-0.1,0.1-0.1
	c0-0.1,0.1-0.1,0.1-0.2c0,0,0.1-0.1,0.1-0.1c0-0.1,0.1-0.1,0.1-0.2c0,0,0.1-0.1,0.1-0.1c0-0.1,0.1-0.1,0.1-0.2c0,0,0-0.1,0.1-0.1
	c0.1-0.1,0.1-0.1,0.2-0.2c0,0,0,0,0,0c0.1-0.1,0.1-0.1,0.2-0.2c0,0,0,0,0,0c0.4-0.4,0.8-0.8,1.2-1.2c1.8-1.6,3.9-2.6,6.1-3.1
	c0,0,0.1,0,0.1,0c0,0,0.1,0,0.1,0c2-0.4,4.1-0.4,6.2,0.2c0.4,0.1,0.9,0.2,1.3,0.4c0,0,0,0,0,0c0.1,0,0.2,0.1,0.3,0.1
	c0,0,0.1,0,0.1,0.1c0.1,0,0.2,0.1,0.4,0.1c0.1,0,0.2,0.1,0.2,0.1c0.1,0,0.1,0,0.2,0.1c0.1,0.1,0.3,0.1,0.4,0.2c0,0,0,0,0.1,0
	c0.1,0.1,0.2,0.1,0.4,0.2c0,0,0,0,0.1,0c0.1,0.1,0.3,0.2,0.4,0.2c0,0,0,0,0,0c0.1,0.1,0.3,0.2,0.4,0.3c0,0,0,0,0,0
	c0.1,0.1,0.3,0.2,0.4,0.3c0,0,0,0,0,0c0.1,0.1,0.3,0.2,0.4,0.3c0,0,0,0,0,0c0.1,0.1,0.2,0.2,0.4,0.3c0,0,0,0,0,0
	c0.1,0.1,0.2,0.2,0.3,0.3c0,0,0.1,0.1,0.1,0.1c0.1,0.1,0.2,0.2,0.3,0.3c0,0,0,0,0.1,0.1c0.1,0.1,0.2,0.2,0.3,0.3
	c0,0,0.1,0.1,0.1,0.1c0.1,0.1,0.2,0.2,0.3,0.3c2.6-2.9,6.2-4.6,10.1-4.6c7.6-0.1,13.8,6,13.9,13.5C74,56.9,74,56.9,74,57z"/>
</svg>
