<svg xmlns="http://www.w3.org/2000/svg" viewBox="0 0 100 100"><defs><style>.a{fill:#172026;}</style></defs><title>polymath</title><path class="a" d="M50,0a50,50,0,1,0,50,50A50,50,0,0,0,50,0ZM80.54,39.35,75.9,40.72l.95,3.09.41,8.41L73.47,54l-6.36-4-2.2-2.28-.17,3.07-4.16,6.35-5.19,2.26-3.16,2.11,1-4.83L57,56.43l1.28-5.62-8,3.7-8.32-1.4-4.13,3L35.34,60.2,29,62.74,25.74,69.5l.5,2.57-3.92.8,1.52-2.46,1.41-6.16,2.47-6.66,0-4.54-4.84-1-3.22,4.27-3.43-.56,3.64-1,2.58-4.83,5.25-.06,2.9-3.1,7-2.35L52.52,32.07l4.63-.91v0l8.09,4.16,5.65.47,6.19-4.34,5.07-.26-4.77,1.32-3.72,5.3,1.18,1.07,4.37-.57L83,35l.67-1.9.14,2.28Z"/></svg>
